<svg width="24" height="23" viewBox="0 0 24 23" fill="none" xmlns="http://www.w3.org/2000/svg">
<g clip-path="url(#clip0_129_12)">
<path d="M20.0156 0H3.98438C1.78387 0 0 1.75057 0 3.91V19.0532C0 21.2126 1.78387 22.9632 3.98438 22.9632H20.0156C22.2161 22.9632 24 21.2126 24 19.0532V3.91C24 1.75057 22.2161 0 20.0156 0Z" fill="#49021F"/>
<path d="M8.71592 6.00723V16.0715C8.71592 16.1768 8.66761 16.2295 8.57098 16.2295H6.62286C6.53686 16.2295 6.49395 16.1768 6.49414 16.0715V6.00723C6.49414 5.92302 6.54242 5.88088 6.63899 5.88082H8.58711C8.60349 5.87854 8.62018 5.8798 8.63602 5.88449C8.65186 5.88919 8.66646 5.89721 8.67882 5.90801C8.69118 5.9188 8.70099 5.93211 8.70758 5.94701C8.71416 5.9619 8.71736 5.97802 8.71695 5.99426L8.71592 6.00723ZM14.5834 16.3865L14.4797 16.3875C13.7386 16.3986 13.0044 16.2475 12.3304 15.9452C11.7024 15.66 11.1775 15.1944 10.825 14.6101C10.4689 14.0296 10.2865 13.3062 10.2779 12.4398L10.2776 12.3745C10.2716 11.6493 10.4604 10.9354 10.8251 10.3047C11.1907 9.67954 11.7238 9.16462 12.3666 8.8159L12.419 8.78793C13.1165 8.40877 13.959 8.21918 14.9466 8.21918L14.9675 8.21928L15.0137 8.22029L15.066 8.22231L15.1244 8.22526L15.1888 8.22921L15.2592 8.23427L15.4183 8.24706L15.4618 8.25074V5.13838C15.4618 5.06472 15.494 5.02783 15.5584 5.0277H17.587C17.6001 5.02586 17.6135 5.02703 17.6261 5.03114C17.6387 5.03525 17.6501 5.04218 17.6595 5.05138C17.6688 5.06057 17.6759 5.07178 17.6801 5.08412C17.6843 5.09646 17.6855 5.10959 17.6836 5.12246V14.46C17.6842 14.6551 17.6923 14.8501 17.7078 15.0446L17.723 15.2483L17.7364 15.4379L17.748 15.6133C17.75 15.6461 17.7418 15.6788 17.7246 15.707C17.7074 15.7352 17.6819 15.7576 17.6514 15.7714C17.1281 15.9855 16.583 16.1444 16.0253 16.2453C15.5495 16.3315 15.0672 16.3788 14.5835 16.3865M15.4619 14.4284V10.1151C15.3749 10.092 15.286 10.0761 15.1963 10.0677C15.0866 10.0569 14.9764 10.0516 14.8662 10.0519C14.4755 10.0481 14.0894 10.1347 13.7392 10.3047C13.3982 10.4712 13.107 10.7216 12.894 11.0315C12.6739 11.3475 12.5638 11.7635 12.5639 12.2797C12.5561 12.6241 12.6134 12.9669 12.7329 13.2908C12.8302 13.5518 12.9841 13.789 13.1838 13.986C13.3749 14.1673 13.6064 14.3025 13.86 14.381C14.1278 14.466 14.4076 14.5087 14.6891 14.5075C14.8393 14.5075 14.9788 14.5022 15.1077 14.4916C15.2105 14.484 15.3124 14.4673 15.4122 14.4419L15.4619 14.4284Z" fill="#FF3366"/>
</g>
<defs>
<clipPath id="clip0_129_12">
<rect width="24" height="23" fill="white"/>
</clipPath>
</defs>
</svg>
