<svg width="24" height="24" viewBox="0 0 24 24" fill="none" xmlns="http://www.w3.org/2000/svg">
<g clip-path="url(#clip0_160_58)">
<path d="M18.375 0H5.625C2.5184 0 0 2.5184 0 5.625V18.375C0 21.4816 2.5184 24 5.625 24H18.375C21.4816 24 24 21.4816 24 18.375V5.625C24 2.5184 21.4816 0 18.375 0Z" fill="#764ABC"/>
<path d="M15.6168 15.5248C16.3088 15.4531 16.8337 14.8566 16.8098 14.1408C16.7859 13.425 16.1894 12.8524 15.4736 12.8524H15.4259C14.6862 12.8762 14.1136 13.4966 14.1374 14.2363C14.1613 14.5942 14.3045 14.9043 14.5192 15.1191C13.7079 16.7177 12.4673 17.8869 10.6061 18.8652C9.34154 19.5332 8.02923 19.7718 6.71691 19.6049C5.6432 19.4617 4.80816 18.9844 4.28316 18.1971C3.51966 17.028 3.44813 15.7634 4.09229 14.4988C4.54566 13.592 5.26145 12.924 5.71482 12.5899C5.61938 12.2798 5.47623 11.7548 5.4046 11.373C1.94495 13.8784 2.30279 17.2665 3.3526 18.8652C4.1401 20.0581 5.73863 20.7978 7.50432 20.7978C7.98151 20.7978 8.4587 20.7501 8.93588 20.6308C11.9901 20.0343 14.3045 18.2209 15.6168 15.5248Z" fill="white"/>
<path d="M19.816 12.5662C18.0027 10.4426 15.3304 9.27349 12.2763 9.27349H11.8945C11.6797 8.84393 11.2264 8.55762 10.7254 8.55762H10.6776C9.93796 8.58152 9.36533 9.20187 9.38914 9.94155C9.41305 10.6573 10.0095 11.23 10.7254 11.23H10.7731C11.298 11.2061 11.7514 10.8721 11.9422 10.4187H12.3717C14.185 10.4187 15.903 10.9436 17.4539 11.9696C18.6469 12.7571 19.5059 13.7831 19.9831 15.0237C20.3887 16.0258 20.3648 17.0041 19.9354 17.8392C19.2673 19.1038 18.1459 19.7958 16.6665 19.7958C15.7121 19.7958 14.8055 19.5095 14.3282 19.2947C14.0658 19.5333 13.5886 19.9151 13.2545 20.1536C14.2805 20.6308 15.3304 20.8933 16.3325 20.8933C18.6231 20.8933 20.3171 19.6287 20.9614 18.3641C21.6533 16.9803 21.6056 14.5943 19.816 12.5662Z" fill="white"/>
<path d="M7.69528 15.9306C7.71919 16.6463 8.31563 17.219 9.0315 17.219H9.07922C9.81882 17.1951 10.3915 16.5747 10.3676 15.835C10.3438 15.1192 9.74728 14.5466 9.0315 14.5466H8.98369C8.93607 14.5466 8.86444 14.5466 8.81682 14.5705C7.83844 12.948 7.43288 11.1823 7.57603 9.27356C7.67147 7.842 8.14866 6.60122 8.98378 5.57512C9.67566 4.69237 11.0119 4.26291 11.9185 4.239C14.4477 4.19128 15.5214 7.34081 15.593 8.6055C15.9032 8.67703 16.4281 8.844 16.786 8.96334C16.4997 5.09813 14.1137 3.09375 11.8231 3.09375C9.67566 3.09375 7.69528 4.64466 6.90788 6.93525C5.81035 9.98934 6.52613 12.9241 7.86225 15.2386C7.743 15.4056 7.67138 15.6681 7.69528 15.9306Z" fill="white"/>
</g>
<defs>
<clipPath id="clip0_160_58">
<rect width="24" height="24" fill="white"/>
</clipPath>
</defs>
</svg>
