<svg width="59" height="73" viewBox="0 0 59 73" fill="none" xmlns="http://www.w3.org/2000/svg">
<path d="M57.6065 0.0619512C43.5019 5.22848 29.5178 10.728 15.5739 16.3078C15.4361 14.2814 15.2812 12.2492 15.1262 10.2228C15.0228 8.82783 12.9103 8.78765 12.9218 10.2228C12.9447 12.5841 13.0079 14.9416 13.1112 17.2952L7.42228 19.5914C7.58876 18.7246 6.73915 17.743 5.86084 18.3917L0.464689 22.3871C-0.442324 23.0588 0.0513662 24.9072 1.3143 24.4021C5.28678 22.8023 9.25927 21.2045 13.2318 19.6087C13.3753 22.1001 13.5647 24.5972 13.8058 27.0714C13.8058 27.7086 13.8058 28.3458 13.8058 28.983C13.0369 28.6314 12.1951 28.4683 11.3505 28.5072C10.5058 28.5462 9.68264 28.7861 8.94928 29.2069C7.04341 30.355 6.27991 32.5135 6.01584 34.6031C5.7431 37.087 5.79714 39.596 6.17658 42.0658C6.44638 44.0234 6.75064 46.6583 8.63355 47.8064C8.9836 48.0242 9.37405 48.1691 9.78147 48.2322C10.1889 48.2953 10.6049 48.2755 11.0044 48.1738C10.3914 49.688 10.0551 51.2998 10.0113 52.9328C9.97685 54.3507 12.1812 54.3507 12.2157 52.9328C12.296 49.4884 14.0469 46.4517 16.1709 43.8167C17.0665 48.6503 18.1476 53.4341 19.4144 58.1682C20.5912 62.6057 21.9402 66.9915 23.4328 71.3314C23.892 72.6632 26.0218 72.0891 25.5625 70.7573C22.2871 61.2839 19.7611 51.5677 18.0079 41.6985C20.7405 38.6789 23.6969 35.843 26.5614 32.9555L26.5959 32.9211C26.7795 32.9742 26.9741 32.9772 27.1593 32.9299C27.3446 32.8826 27.5138 32.7867 27.6496 32.6521C27.7854 32.5175 27.8827 32.3491 27.9316 32.1643C27.9805 31.9794 27.9791 31.7849 27.9277 31.6008L30.5282 29.0003L30.6889 29.0921C31.5173 29.49 32.4675 29.5521 33.3406 29.2654C34.2137 28.9786 34.9421 28.3652 35.3732 27.5536C35.6557 27.0139 35.8142 26.4179 35.837 25.8091C35.8599 25.2003 35.7465 24.5941 35.5052 24.0347L36.1999 23.3573C36.5182 23.8645 36.8651 24.3533 37.2389 24.8211C37.813 25.51 38.8463 25.045 39.0816 24.3332C39.4531 23.2061 39.7485 22.0554 39.9657 20.8888C39.9657 20.952 40.0231 21.0094 40.0575 21.0725C40.7062 22.3182 41.8888 23.3687 43.3871 23.1449C45.1093 22.8521 45.8268 21.262 46.3033 19.7981C46.7453 18.4433 44.6156 17.8635 44.1793 19.224C44.0128 19.7464 43.6339 21.1816 42.8245 20.9921C42.0151 20.8027 41.6305 19.27 41.4066 18.6557L41.332 18.3687C43.2149 16.5394 45.1035 14.7196 46.9979 12.9094C50.8747 9.20097 54.7783 5.52508 58.7087 1.88172C59.455 1.18137 58.6513 -0.322668 57.6065 0.0619512ZM9.18465 45.2174C8.3293 43.656 8.24893 41.4688 8.13412 39.7352C7.92007 37.7792 7.99551 35.8023 8.358 33.8683C8.7828 32.1002 9.97111 30.4871 11.9975 30.7511C12.6646 30.8281 13.2789 31.1516 13.7197 31.6582C13.6451 33.5066 13.5131 35.3608 13.3064 37.2036C13.0938 39.3582 12.739 41.4965 12.2444 43.6043C12.0262 44.4769 11.7048 45.5217 10.8265 45.9465C10.0687 46.2967 9.52908 45.8776 9.18465 45.2174ZM14.8104 42.0199C14.9999 40.9751 15.1606 39.9246 15.3041 38.8683C15.4189 39.5917 15.5337 40.3092 15.66 41.0268C15.373 41.3311 15.086 41.6812 14.8104 42.0199ZM17.3363 37.6399C17.4784 37.7876 17.6319 37.9239 17.7955 38.0474C17.9182 38.1346 18.0467 38.2133 18.1801 38.2828C17.962 38.5067 17.7553 38.7306 17.5429 38.9544C17.4683 38.5182 17.3994 38.0819 17.3363 37.6399ZM22.5717 33.8166L22.3363 34.052C22.3363 33.9085 22.365 33.765 22.3765 33.6157C22.4397 33.6846 22.5028 33.7535 22.5717 33.8166ZM19.5464 26.9279C19.6383 27.456 19.7588 27.9842 19.9023 28.5066C20.1838 30.1902 20.2705 31.9007 20.1607 33.6042C20.1147 34.2931 20.1607 35.7225 19.5866 36.2506C19.0125 36.7788 18.5131 35.5158 18.3466 35.1025C17.4943 33.1477 17.2426 30.9837 17.6233 28.8855C17.7783 28.1966 18.0826 27.2781 18.7714 26.9796C19.0171 26.8791 19.2878 26.857 19.5464 26.9164V26.9279ZM27.2847 29.1208C26.9094 27.0861 26.8938 25.0013 27.2388 22.9612C28.0957 24.3289 28.6805 25.8493 28.961 27.4388L27.2847 29.1208ZM33.3525 26.6696C33.2215 26.8381 33.0558 26.9766 32.8666 27.0756C32.6775 27.1747 32.4693 27.2319 32.2561 27.2436L33.6797 25.8315C33.6469 26.1349 33.5339 26.4241 33.3525 26.6696ZM34.2366 22.2149C33.0885 21.1586 31.24 20.4353 30.6085 18.9485C30.3559 18.3744 30.465 17.4272 31.1826 17.2608C31.6705 17.1574 32.1872 17.565 31.9059 18.053C31.1941 19.2814 33.0999 20.3951 33.806 19.1666C34.0022 18.829 34.1236 18.4531 34.162 18.0644C34.3463 19.1865 34.6623 20.2828 35.1034 21.3308L34.2366 22.2149ZM40.6086 15.9921C40.5397 15.6993 40.4823 15.418 40.4249 15.1023C40.3902 13.7276 40.252 12.3575 40.0116 11.0035C39.7935 9.76355 37.8302 10.0735 37.8474 11.2963C37.8627 12.74 37.9971 14.1801 38.2493 15.6017C38.255 16.5431 38.209 17.4841 38.1115 18.4204L36.8256 19.6775C36.5616 18.9321 36.3694 18.1632 36.2515 17.3813C36.3928 17.3538 36.5268 17.2969 36.6447 17.2143C36.7626 17.1318 36.8619 17.0253 36.936 16.9019C37.0102 16.7785 37.0576 16.6409 37.0751 16.498C37.0927 16.3551 37.08 16.2101 37.038 16.0725C36.7854 15.2056 36.5328 14.3503 36.286 13.4777C36.0047 12.5133 34.3284 12.3296 34.162 13.4777C33.9905 14.6175 33.952 15.7734 34.0471 16.9221C33.8695 16.414 33.5493 15.9678 33.1248 15.637C32.7002 15.3061 32.1894 15.1045 31.6533 15.0564C29.6211 14.8669 28.0769 16.7785 28.3008 18.7074C28.5247 20.6362 30.1608 21.9049 31.6705 22.9784C32.0158 23.2189 32.3421 23.4857 32.6464 23.7763L31.2802 25.1311C31.2721 24.8903 31.1884 24.6582 31.0411 24.4676C30.8938 24.277 30.6902 24.1376 30.4593 24.0691C30.3934 24.0508 30.3262 24.0373 30.2583 24.0289C29.5962 22.4224 28.6557 20.9455 27.4799 19.6661C27.342 19.5328 27.1721 19.4375 26.9866 19.3892C26.8011 19.3409 26.6062 19.3413 26.4209 19.3903C26.2356 19.4394 26.0661 19.5355 25.9288 19.6693C25.7915 19.8031 25.691 19.97 25.6372 20.154C25.4764 20.6879 25.3387 21.2275 25.2239 21.7671C25.1148 21.394 25 21.0208 24.8794 20.6534C24.4374 19.3159 22.3708 19.8612 22.7554 21.2275L23.6682 24.5054C24.2023 26.7409 24.4149 29.0411 24.2996 31.3367C24.2806 31.5839 24.2441 31.8294 24.1905 32.0715C24.1727 32.1353 24.1476 32.197 24.1159 32.2552C23.6165 32.0141 23.2146 30.9004 22.9678 30.4526C22.5857 29.6773 22.2763 28.8683 22.0436 28.0358C22.0403 27.9823 22.0403 27.9286 22.0436 27.8751C22.1606 27.7456 22.2447 27.5898 22.2886 27.421C22.3326 27.2521 22.3352 27.0751 22.2962 26.9049C22.1716 26.3073 21.8402 25.7727 21.3604 25.3952C21.2552 25.2724 21.1182 25.181 20.9643 25.1311C20.4461 24.8472 19.8647 24.6984 19.2737 24.6984C18.6828 24.6984 18.1014 24.8472 17.5831 25.1311C16.9001 25.537 16.3527 26.1363 16.0102 26.8533C16.0102 24.115 15.8839 21.3768 15.7232 18.6385C25.6487 14.6316 35.5914 10.6993 45.5972 6.88751C48.1116 5.9384 50.6298 4.99312 53.1518 4.05166C48.9382 8.00119 44.7572 11.9813 40.6086 15.9921Z" fill="url(#paint0_linear_121_15)"/>
<path d="M34.0127 55.981L33.8347 56.1131C31.6202 52.6291 29.9061 48.8512 28.7428 44.8902C28.4794 42.7912 28.0279 40.7201 27.3938 38.7019C26.9575 37.3126 25.0976 37.9211 25.2698 39.2759C25.5636 41.3281 25.999 43.3574 26.5729 45.3495C26.7405 46.7707 26.8191 48.2009 26.8083 49.6319C25.2162 46.9721 23.6222 44.3162 22.0264 41.664C21.9385 41.4955 21.8062 41.3544 21.6438 41.2559C21.4813 41.1574 21.295 41.1053 21.105 41.1053C20.915 41.1053 20.7287 41.1574 20.5662 41.2559C20.4038 41.3544 20.2714 41.4955 20.1836 41.664C20.0103 41.6562 19.8375 41.6894 19.6794 41.7609C19.5213 41.8324 19.3824 41.9403 19.2738 42.0757C19.1653 42.2111 19.0903 42.3702 19.0548 42.54C19.0194 42.7099 19.0246 42.8857 19.07 43.0532L21.4236 50.0166C22.5725 54.7933 24.1559 59.4549 26.1538 63.9432C26.659 65.0914 28.5649 64.2705 28.1688 63.0936L23.5361 49.3679C23.4213 48.8742 23.3122 48.3862 23.2032 47.8926L26.7623 53.8111C26.8889 54.0151 27.0782 54.1725 27.3019 54.2595C27.5256 54.3466 27.7715 54.3587 28.0027 54.2939C28.2338 54.2292 28.4377 54.0911 28.5836 53.9005C28.7295 53.7099 28.8096 53.4771 28.8117 53.237C28.8691 52.7319 28.9151 52.2324 28.9495 51.7273C29.9887 53.9941 31.2097 56.1731 32.6005 58.2428C32.7568 58.486 32.9991 58.6613 33.279 58.7337C33.5588 58.806 33.8557 58.7702 34.1103 58.6332L35.1436 57.8984C36.2745 57.066 35.1723 55.1544 34.0127 55.981Z" fill="url(#paint1_linear_121_15)"/>
<defs>
<linearGradient id="paint0_linear_121_15" x1="29.5" y1="0" x2="29.5" y2="72.0883" gradientUnits="userSpaceOnUse">
<stop stop-color="#FFD900"/>
<stop offset="1" stop-color="#B66700"/>
</linearGradient>
<linearGradient id="paint1_linear_121_15" x1="27.3245" y1="37.9136" x2="27.3245" y2="64.4949" gradientUnits="userSpaceOnUse">
<stop stop-color="#FFD900"/>
<stop offset="1" stop-color="#B66700"/>
</linearGradient>
</defs>
</svg>
