<svg width="553" height="209" viewBox="0 0 553 209" fill="none" xmlns="http://www.w3.org/2000/svg">
<path d="M437.07 113C434.403 122.84 431.737 132.733 429.07 142.68C426.403 152.627 423.76 162.52 421.14 172.36C418.473 182.2 415.807 192.137 413.14 202.17H519.49L543.37 113H437.07ZM544.74 42.37C537.88 29.33 525.777 18.9967 508.43 11.37C491.083 3.74333 467.53 -0.0466694 437.77 -2.76486e-06C424.46 -0.0720269 411.164 0.880788 398 2.85C386.375 4.57159 374.931 7.34976 363.81 11.15C353.88 14.5214 344.29 18.8239 335.17 24C326.85 28.7385 319.025 34.2961 311.81 40.59C311.143 41.19 310.477 41.8 309.81 42.42C309.95 42.74 310.09 43.08 310.22 43.42C312.75 49.7005 314.457 56.2817 315.3 63C315.739 66.2663 315.993 69.5549 316.06 72.85C316.217 83.5057 314.87 94.1303 312.06 104.41C310.216 111.255 307.831 117.942 304.93 124.41C301.916 131.14 298.413 137.641 294.45 143.86C293.67 145.08 292.863 146.293 292.03 147.5C286.84 155.127 280.911 162.225 274.33 168.69C276.102 172.276 278.223 175.679 280.66 178.85C285.655 185.28 291.82 190.708 298.83 194.85C306.933 199.548 315.698 202.997 324.83 205.08C335.981 207.621 347.394 208.836 358.83 208.7C364.69 208.7 369.83 208.49 374.17 208.07C378.51 207.65 383.11 206.97 387.84 206.07C393.247 195.87 398.733 185.537 404.3 175.07C409.867 164.603 415.377 154.187 420.83 143.82C426.277 133.473 431.69 123.2 437.07 113C433.787 116.843 429.547 119.751 424.78 121.43C419.56 123.43 412.69 124.43 404.17 124.43C399.499 124.542 394.84 123.925 390.36 122.6C387.177 121.684 384.27 119.994 381.9 117.68C380.053 115.786 378.781 113.407 378.23 110.82C377.743 108.19 377.87 105.483 378.6 102.91C379.708 98.9426 381.679 95.2686 384.37 92.15C387.661 88.4465 391.77 85.5603 396.37 83.72C401.557 81.48 408.083 80.3633 415.95 80.37C424.32 80.37 430.63 81.73 434.89 84.49C436.896 85.6827 438.581 87.3456 439.801 89.3352C441.02 91.3248 441.737 93.5814 441.89 95.91C442.27 100.737 440.66 106.437 437.06 113.01L552.46 86.57C554.2 70.15 551.627 55.4167 544.74 42.37Z" fill="white"/>
<path d="M299.49 102.59C295.839 115.892 290.177 128.558 282.7 140.15C281.96 141.31 281.21 142.45 280.41 143.61C275.981 150.116 270.985 156.216 265.48 161.84C264.62 162.74 263.72 163.63 262.82 164.5C261.92 165.37 261.05 166.21 260.15 167.03C257.883 169.13 255.55 171.167 253.15 173.14C240.49 183.278 226.191 191.178 210.87 196.5C194.78 202.27 176.31 205.2 155.96 205.2H0L48.46 24.36C50.34 17.3533 52.2067 10.3733 54.06 3.42H211.83C228.24 3.42 242.45 5.28 254.08 8.95C265.54 12.59 274.99 17.63 282.15 23.95C287.587 28.7111 292.114 34.4205 295.51 40.8C296.07 41.87 296.6 42.95 297.08 44.06C297.37 44.68 297.63 45.3 297.88 45.93C298.13 46.56 298.29 46.93 298.49 47.48C300.483 52.7618 301.849 58.2595 302.56 63.86C302.972 66.8703 303.205 69.9022 303.26 72.94C303.403 82.9514 302.134 92.9329 299.49 102.59Z" fill="white"/>
<path d="M188.62 100.28L220.21 41.28L166.91 85.28L142.37 59.76L87.3 162.6L140.61 118.6L165.14 144.12L178.91 118.4L168.18 128.52L152.77 113L177.77 89.38L188.62 100.28ZM141.79 102.35L134 94.56L144.43 84.71L152.19 92.51L141.79 102.35Z" fill="url(#paint0_linear_6_708)"/>
<defs>
<linearGradient id="paint0_linear_6_708" x1="153.755" y1="41.28" x2="153.755" y2="162.6" gradientUnits="userSpaceOnUse">
<stop stop-color="#006DE1"/>
<stop offset="1" stop-color="#4F20D2"/>
</linearGradient>
</defs>
</svg>
