<svg width="24" height="23" viewBox="0 0 24 23" fill="none" xmlns="http://www.w3.org/2000/svg">
<g clip-path="url(#clip0_129_9)">
<path d="M20.0156 0H3.98438C1.78387 0 0 1.75057 0 3.91V19.0532C0 21.2126 1.78387 22.9632 3.98438 22.9632H20.0156C22.2161 22.9632 24 21.2126 24 19.0532V3.91C24 1.75057 22.2161 0 20.0156 0Z" fill="#330000"/>
<path d="M11.63 13.7809H7.91092L7.15417 16.0876C7.14387 16.1297 7.11894 16.1669 7.08366 16.1928C7.04839 16.2188 7.00499 16.2319 6.96095 16.2298H5.07723C4.96986 16.2298 4.93229 16.1719 4.96454 16.0559L8.18457 6.95548C8.21676 6.86072 8.24895 6.75277 8.28114 6.63164C8.32332 6.42077 8.34489 6.2066 8.34554 5.99178C8.34335 5.97675 8.34475 5.96143 8.34964 5.94703C8.35453 5.93262 8.36276 5.91954 8.3737 5.9088C8.38463 5.89806 8.39796 5.88997 8.41263 5.88516C8.4273 5.88035 8.44292 5.87896 8.45823 5.8811H11.0182C11.0932 5.8811 11.1361 5.90747 11.147 5.96022L14.8016 16.0718C14.8338 16.1772 14.8016 16.2299 14.7051 16.2298H12.612C12.5761 16.2337 12.5399 16.2246 12.5103 16.2042C12.4807 16.1839 12.4596 16.1537 12.451 16.1192L11.63 13.7809ZM8.49048 11.7902H11.0343L10.998 11.6727L10.9398 11.4867L10.8983 11.356L10.832 11.1503L10.6911 10.7173L10.5671 10.3333L10.2453 9.33331C10.1652 9.08471 10.0883 8.83513 10.0147 8.58461L9.95579 8.38129L9.88698 8.1409L9.78198 7.7683L9.76229 7.6981H9.74626C9.66568 8.07733 9.56758 8.45277 9.45226 8.82326L9.21339 9.57729L9.08195 9.99387L8.94929 10.4156C8.92535 10.4918 8.90145 10.5671 8.87757 10.6415L8.80632 10.8622L8.73545 11.0776L8.66495 11.2878L8.59482 11.4926C8.57157 11.5601 8.54835 11.6267 8.52517 11.6923L8.49048 11.7902ZM16.9749 7.55587C16.8107 7.56231 16.647 7.53469 16.4944 7.4748C16.3418 7.4149 16.2039 7.32409 16.0895 7.20829C15.9755 7.08741 15.8869 6.94563 15.8289 6.79108C15.7709 6.63654 15.7445 6.47227 15.7513 6.3077C15.7455 6.14478 15.7747 5.98248 15.8372 5.83141C15.8996 5.68033 15.9938 5.54387 16.1136 5.43094C16.3447 5.21324 16.6524 5.09141 16.9728 5.09082L17.0071 5.09119C17.3935 5.09119 17.6968 5.20441 17.9169 5.43085C18.0279 5.54854 18.1142 5.68657 18.1708 5.83703C18.2275 5.98749 18.2533 6.14743 18.2469 6.3077C18.2537 6.47294 18.2265 6.63783 18.1671 6.79257C18.1076 6.9473 18.017 7.08871 17.9007 7.20838C17.7834 7.3219 17.644 7.41123 17.4909 7.47111C17.3379 7.53099 17.1741 7.56021 17.0094 7.55706L16.9749 7.55587ZM15.864 16.0718V8.51966C15.8639 8.42484 15.9069 8.37743 15.9928 8.37743H17.9732C18.059 8.37743 18.1019 8.42484 18.102 8.51966V16.0718C18.102 16.1772 18.0591 16.2299 17.9732 16.2298H16.0089C15.9174 16.2298 15.8693 16.1825 15.8645 16.0879L15.864 16.0718Z" fill="#FF9A00"/>
</g>
<defs>
<clipPath id="clip0_129_9">
<rect width="24" height="23" fill="white"/>
</clipPath>
</defs>
</svg>
