<svg width="24" height="23" viewBox="0 0 24 23" fill="none" xmlns="http://www.w3.org/2000/svg">
<path d="M14.7496 2.22698C8.6524 -0.989741 3.10141 1.30221 1.10174 4.43509C0.446096 5.45888 -0.0170857 7.32199 0.000483315 8.79938C0.0364199 11.8396 1.71905 15.228 5.35103 18.646C9.81914 22.8506 14.3791 22.4832 15.8285 22.1303C17.6533 21.6846 18.8767 21.3053 18.6891 19.6043C18.6651 19.3807 18.4735 18.975 18.1844 18.7977C17.2564 18.2347 15.3174 17.9416 14.4054 16.5856C13.0798 14.6115 14.7281 14.5117 16.3077 15.3558C17.9983 16.2606 18.9646 16.8252 20.6616 16.6695C21.9058 16.5561 23.7146 15.8054 23.9598 13.7067C24.1802 11.8085 21.4091 5.74078 14.7488 2.22698M17.238 12.5448C16.7709 13.2555 15.6169 13.012 14.8606 12.3411C14.1044 11.6703 14.0061 10.5523 14.4965 10.1131C14.9956 9.66825 15.9339 9.76967 16.691 10.4405C17.4457 11.1129 17.6038 11.9858 17.238 12.5448Z" fill="#AC5810"/>
<path d="M15.0171 1.50276C8.91906 -1.71396 3.35449 0.773646 1.35482 3.90652C-0.647247 7.04099 0.223215 12.8443 5.61769 17.9218C10.085 22.1256 14.6457 21.759 16.0952 21.4052C17.92 20.9604 19.2073 20.0916 18.4047 18.9839C17.8513 18.2189 15.8692 17.6423 14.6729 15.8614C13.3472 13.8865 14.9971 13.7867 16.5759 14.6316C18.2665 15.5356 19.2336 16.101 20.9306 15.9453C22.174 15.8311 24.0547 14.8688 23.9988 12.9242C23.9405 11.0132 21.6773 5.01816 15.0171 1.50276ZM17.8225 12.489C17.2539 13.1039 16.0417 12.9362 15.1153 12.1176C14.1913 11.2975 13.9015 10.1355 14.4709 9.52221C15.0394 8.90729 16.2517 9.075 17.1781 9.89355C18.1044 10.7121 18.3919 11.8765 17.8225 12.489Z" fill="#F2A259"/>
<path d="M8.80942 15.2717C9.03941 14.6848 10.6725 14.0419 12.1739 15.1096C12.5947 15.4091 13.1218 16.1717 13.0683 17.13C12.8926 20.2605 7.75528 17.9726 8.80942 15.2717Z" fill="#EEEEEE"/>
<path d="M4.04031 9.96377C4.56498 9.12525 5.84113 9.02942 6.95676 9.75374C7.951 10.3982 8.78154 11.9858 7.5557 13.024C6.89926 13.5806 5.76287 13.2356 5.0625 12.6981C4.212 12.0497 3.47491 10.8662 4.04031 9.96377Z" fill="#2686C6"/>
<path d="M10.8168 2.64602C10.9781 1.98159 12.1057 1.86739 12.9043 2.16527C14.2843 2.68036 14.9087 4.04595 14.4 4.80621C13.655 5.91864 12.0322 5.53692 11.4173 4.90044C10.3736 3.82234 10.681 3.20343 10.8168 2.64602Z" fill="#FFEE58"/>
<path d="M18.8104 5.90051C19.9156 6.40362 20.0594 7.19981 19.8486 7.78119C19.716 8.14055 19.4469 8.63328 18.8958 8.678C17.9631 8.75387 17.8337 7.98323 17.1685 7.7716C16.6095 7.59352 16.3819 6.82927 16.6015 6.31577C16.8059 5.84301 17.4009 5.25764 18.8104 5.90051Z" fill="#7CB342"/>
<path d="M12.6733 17.7275C12.3978 17.9775 11.4411 18.2849 10.2272 17.5263C9.81593 17.2683 9.42223 16.8954 9.20102 16.3364C9.02772 15.8971 9.06526 15.4739 9.14352 15.2862C9.36712 14.7448 9.70812 14.6449 9.70812 14.6449C9.36473 14.621 8.71627 15.0762 8.60846 15.6735C8.57412 15.8612 8.33215 17.0343 9.8878 18.0989C11.227 19.0172 13.2083 18.9318 13.0782 17.083C13.0033 17.3304 12.864 17.5531 12.6733 17.7275Z" fill="#B0B0B0"/>
<path d="M8.13893 11.4905C8.1014 12.2036 7.26607 12.579 6.8013 12.5805C5.48522 12.5821 4.30331 11.7556 4.22185 10.2846C4.20748 10.0211 4.33765 9.64014 4.33765 9.64014C4.16355 9.71361 3.91839 10.0889 3.86648 10.3006C3.55902 11.5703 4.83836 13.0501 6.18638 13.3496C6.86918 13.5013 7.73005 13.2673 8.0431 12.6564C8.26671 12.2212 8.22278 11.8482 8.13893 11.4905Z" fill="#01579B"/>
<path d="M12.7426 4.90223C11.8482 4.80001 11.3531 4.21545 11.2237 4.08128C10.8675 3.70994 10.6487 3.34898 10.7765 2.81392C10.8164 2.64222 10.9139 2.42261 11.0336 2.29883C10.8883 2.34674 10.6527 2.65979 10.5784 2.82989C10.5026 2.99919 10.2271 3.63647 10.818 4.42068C11.183 4.90782 11.8203 5.45725 12.7626 5.58902C13.431 5.68246 13.911 5.44288 14.3103 5.05397C14.5818 4.78804 14.7016 4.18909 14.5395 3.88004C14.5658 4.10524 14.1521 5.06355 12.7426 4.90223Z" fill="#DF7F14"/>
<path d="M20.1003 7.32455C20.0278 7.09479 19.9127 6.88076 19.7609 6.69366C19.8623 6.88932 20.0644 7.47628 19.6411 8.04647C19.4271 8.33397 18.7842 8.68774 18.0256 8.07283C17.802 7.89075 17.6223 7.71107 17.219 7.56333C16.1952 7.18639 16.6416 6.14423 16.9978 5.8208C16.7183 5.96694 16.4643 6.22808 16.3589 6.62738C16.2104 7.184 16.5761 7.76776 17.1311 8.04647C17.762 8.36431 17.9657 8.97683 18.8305 8.97683C18.8742 8.97683 18.9208 8.97497 18.9703 8.97124C19.5533 8.92173 19.7984 8.69573 19.9765 8.42021C20.1937 8.07682 20.2001 7.68711 20.0995 7.32375" fill="#558B2F"/>
<path d="M4.45728 3.51872C4.91247 3.06911 5.70467 2.59395 6.86502 3.19928C7.56379 3.56264 8.37675 3.98989 8.0086 5.46728C7.7818 6.38327 6.44736 6.86881 5.33333 5.84821C4.89251 5.44492 3.21547 4.74456 4.45728 3.51872Z" fill="#F44336"/>
<path d="M8.27471 5.26983C8.28908 4.92085 8.1094 4.4952 8.04711 4.35145C8.05749 4.56068 8.23877 5.09015 7.40664 5.79051C7.21454 5.94528 6.98451 6.04579 6.74044 6.0816C6.49636 6.11741 6.24715 6.08722 6.01869 5.99415C5.72561 5.87836 5.30395 5.39361 5.00289 5.27143C3.88247 4.82102 4.36561 3.62074 4.52373 3.45703C4.23254 3.66476 4.0351 3.97901 3.9743 4.33149C3.87049 4.87293 3.96632 5.38403 4.70901 5.9686C6.81728 7.63127 7.46414 6.62903 7.69413 6.37428C7.98322 6.06283 8.25874 5.65555 8.27471 5.26983Z" fill="#C62828"/>
<path d="M12.4273 2.23548C12.1343 2.09812 11.2957 2.13805 11.1336 2.83681C11.0362 3.25607 11.3437 3.68092 11.6327 3.63141C11.9618 3.57551 11.7869 3.06202 11.9841 2.91667C12.2852 2.69706 12.8386 2.42953 12.4273 2.23548ZM6.24226 3.25368C5.95317 3.06202 5.02841 3.06042 4.7513 3.76877C4.58359 4.19442 4.84473 4.68715 5.15858 4.67916C5.51555 4.67118 5.34385 4.25032 5.64092 3.98279C6.01626 3.64499 6.64715 3.52121 6.24226 3.25368ZM6.1049 9.65039C5.83099 9.4771 5.02042 9.40842 4.68501 10.0433C4.43905 10.5105 4.77685 11.0256 5.06993 11.012C5.40374 10.996 5.29194 10.465 5.50516 10.3452C5.83099 10.1639 6.48823 9.89396 6.1049 9.65039ZM10.7615 14.9666C10.4684 14.8293 9.62908 14.8692 9.46777 15.5679C9.36954 15.9872 9.677 16.4129 9.96688 16.3625C10.2959 16.3066 10.1202 15.7932 10.3183 15.6478C10.6177 15.4282 11.1712 15.1607 10.7615 14.9666ZM18.2842 5.96649C18.0207 5.77962 17.1885 5.66942 16.905 6.32825C16.7349 6.72356 16.9609 7.19712 17.254 7.19872C17.5878 7.20031 17.5056 6.66526 17.7276 6.55745C18.0606 6.39613 18.6539 6.23003 18.2842 5.96649Z" fill="white"/>
</svg>
